<?xml version="1.0" encoding="utf-8"?>
<!-- Generator: Adobe Illustrator 16.0.4, SVG Export Plug-In . SVG Version: 6.00 Build 0)  -->
<!DOCTYPE svg PUBLIC "-//W3C//DTD SVG 1.1//EN" "http://www.w3.org/Graphics/SVG/1.1/DTD/svg11.dtd">
<svg version="1.1" id="Layer_1" xmlns="http://www.w3.org/2000/svg" xmlns:xlink="http://www.w3.org/1999/xlink" x="0px" y="0px"
	 width="12.625px" height="25.25px" viewBox="0 0 12.625 25.25" enable-background="new 0 0 12.625 25.25" xml:space="preserve">
<path fill="#DAA250" d="M0.86,14.786l1.081-1.909c0.184-0.299,0.62-0.253,0.782-0.138c0.092,0.046,1.747,1.265,3.265,1.265
	c0.92,0,1.587-0.574,1.587-1.38c0-0.966-0.805-1.701-2.369-2.322C3.229,9.52,0.745,7.979,0.745,5.22
	c0-2.277,1.771-4.577,5.312-4.577c2.391,0,4.231,1.219,4.921,1.725c0.277,0.161,0.23,0.575,0.138,0.736L9.942,4.875
	c-0.161,0.253-0.574,0.46-0.781,0.299c-0.207-0.116-1.886-1.38-3.287-1.38c-0.828,0-1.45,0.553-1.45,1.173
	c0,0.851,0.69,1.495,2.506,2.23c1.794,0.713,4.646,2.116,4.646,5.243c0,2.367-2.047,4.76-5.428,4.76
	c-2.989,0-4.644-1.241-5.174-1.771C0.745,15.2,0.676,15.107,0.86,14.786"/>
<rect x="1.338" y="23.646" fill="#DAA250" width="9.831" height="1"/>
<line fill="none" x1="53.892" y1="-25.372" x2="-50.75" y2="31.817"/>
<line fill="none" x1="-41.49" y1="48.762" x2="63.152" y2="-8.427"/>
</svg>
