<?xml version="1.0" encoding="utf-8"?>
<!-- Generator: Adobe Illustrator 16.0.4, SVG Export Plug-In . SVG Version: 6.00 Build 0)  -->
<!DOCTYPE svg PUBLIC "-//W3C//DTD SVG 1.1//EN" "http://www.w3.org/Graphics/SVG/1.1/DTD/svg11.dtd">
<svg version="1.1" id="Layer_1" xmlns="http://www.w3.org/2000/svg" xmlns:xlink="http://www.w3.org/1999/xlink" x="0px" y="0px"
	 width="81.25px" height="81.125px" viewBox="0 0 81.25 81.125" enable-background="new 0 0 81.25 81.125" xml:space="preserve">
<g>
	<defs>
		<rect id="SVGID_1_" x="-16.75" y="0.89" width="113.902" height="79.11"/>
	</defs>
	<clipPath id="SVGID_2_">
		<use xlink:href="#SVGID_1_"  overflow="visible"/>
	</clipPath>
	<path clip-path="url(#SVGID_2_)" fill="#DAA250" d="M40.728,61.375c-11.541,0-20.931-9.389-20.931-20.929
		c0-11.541,9.39-20.931,20.931-20.931c11.541,0,20.931,9.39,20.931,20.931C61.658,51.986,52.269,61.375,40.728,61.375
		 M40.728,20.515c-10.99,0-19.931,8.94-19.931,19.931c0,10.989,8.941,19.929,19.931,19.929c10.989,0,19.931-8.94,19.931-19.929
		C60.658,29.455,51.717,20.515,40.728,20.515"/>
	<path clip-path="url(#SVGID_2_)" fill="#DAA250" d="M34.86,43.536l1.081-1.909c0.184-0.299,0.62-0.253,0.782-0.138
		c0.092,0.046,1.747,1.265,3.265,1.265c0.92,0,1.587-0.574,1.587-1.38c0-0.966-0.805-1.701-2.369-2.322
		c-1.977-0.782-4.461-2.323-4.461-5.082c0-2.277,1.771-4.577,5.312-4.577c2.391,0,4.231,1.219,4.921,1.725
		c0.277,0.161,0.23,0.575,0.138,0.736l-1.173,1.771c-0.161,0.253-0.574,0.46-0.781,0.299c-0.207-0.116-1.886-1.38-3.287-1.38
		c-0.828,0-1.45,0.553-1.45,1.173c0,0.851,0.69,1.495,2.506,2.23c1.794,0.713,4.646,2.116,4.646,5.243
		c0,2.367-2.047,4.76-5.428,4.76c-2.989,0-4.644-1.241-5.174-1.771C34.745,43.95,34.676,43.857,34.86,43.536"/>
	<rect x="35.338" y="52.396" clip-path="url(#SVGID_2_)" fill="#DAA250" width="9.831" height="1"/>
	<path clip-path="url(#SVGID_2_)" fill="#DAA250" d="M40.728,80C18.916,80,1.172,62.256,1.172,40.446
		c0-21.812,17.744-39.556,39.556-39.556s39.556,17.744,39.556,39.556C80.283,62.256,62.539,80,40.728,80 M40.728,1.89
		c-21.26,0-38.556,17.296-38.556,38.556C2.172,61.703,19.468,79,40.728,79s38.556-17.297,38.556-38.554
		C79.283,19.186,61.987,1.89,40.728,1.89"/>
	<path clip-path="url(#SVGID_2_)" fill="#DAA250" d="M8.924,39.541c-0.066-0.005-0.119-0.063-0.114-0.128l0.134-1.546
		c0.11-1.259,1.221-2.201,2.47-2.091c1.263,0.11,2.196,1.231,2.087,2.49l-0.134,1.546c-0.006,0.067-0.068,0.111-0.134,0.107
		L8.924,39.541z M12.7,38.274c0.074-0.849-0.511-1.524-1.364-1.599c-0.846-0.075-1.537,0.489-1.612,1.337L9.66,38.755l2.976,0.262
		L12.7,38.274z"/>
	<path clip-path="url(#SVGID_2_)" fill="#DAA250" d="M10.259,31.425c-0.062-0.023-0.101-0.092-0.077-0.158l0.873-2.517
		c0.023-0.069,0.097-0.098,0.158-0.077l0.508,0.176c0.061,0.022,0.1,0.091,0.076,0.158l-0.635,1.83l1.014,0.352l0.529-1.527
		c0.023-0.061,0.097-0.098,0.158-0.076l0.514,0.177c0.069,0.024,0.098,0.098,0.076,0.159l-0.529,1.526l1.081,0.377l0.636-1.83
		c0.023-0.068,0.097-0.098,0.158-0.077l0.508,0.175c0.06,0.022,0.099,0.092,0.076,0.159l-0.874,2.517
		c-0.023,0.067-0.097,0.097-0.158,0.076L10.259,31.425z"/>
	<path clip-path="url(#SVGID_2_)" fill="#DAA250" d="M16.204,27.071l-0.219-0.415c-0.05-0.093,0.01-0.187,0.079-0.212
		c0.035-0.019,0.642-0.262,0.869-0.622c0.181-0.288,0.127-0.623-0.111-0.772c-0.283-0.178-0.627-0.061-1.106,0.287
		c-0.538,0.389-1.198,0.703-1.852,0.293c-0.493-0.31-0.835-1.033-0.283-1.915c0.354-0.566,0.914-0.818,1.066-0.876
		c0.068-0.035,0.173,0.007,0.204,0.082l0.185,0.408c0.039,0.086,0.03,0.196-0.055,0.235c-0.056,0.028-0.597,0.276-0.788,0.581
		c-0.198,0.316-0.094,0.619,0.082,0.729c0.261,0.164,0.568,0.071,1.032-0.264c0.552-0.402,1.263-0.822,1.978-0.373
		c0.571,0.356,0.789,1.18,0.3,1.962c-0.439,0.699-1.022,0.904-1.197,0.949C16.307,27.167,16.262,27.176,16.204,27.071"/>
	<path clip-path="url(#SVGID_2_)" fill="#DAA250" d="M17.132,19.351c-0.046-0.045-0.05-0.128-0.005-0.176l0.416-0.443
		c0.045-0.048,0.129-0.05,0.176-0.005l3.157,2.964c0.048,0.045,0.05,0.128,0.006,0.176l-0.417,0.444
		c-0.044,0.048-0.129,0.05-0.176,0.005L17.132,19.351z"/>
	<path clip-path="url(#SVGID_2_)" fill="#DAA250" d="M22.602,14.386c0.485-0.334,1.079-0.463,1.66-0.402
		c0.072,0.014,0.122,0.074,0.11,0.147l-0.094,0.58c-0.014,0.073-0.063,0.107-0.141,0.097c-0.372-0.046-0.732,0.043-1.028,0.246
		c-0.675,0.463-0.813,1.407-0.35,2.08c0.459,0.67,1.381,0.869,2.062,0.402c0.302-0.207,0.47-0.457,0.549-0.575l-0.315-0.458
		l-0.432,0.295c-0.058,0.041-0.132,0.027-0.168-0.025l-0.292-0.426c-0.041-0.06-0.029-0.133,0.032-0.174l1.035-0.711
		c0.053-0.037,0.13-0.018,0.167,0.036l0.947,1.38c0.03,0.044,0.028,0.086,0.018,0.117c0,0-0.317,0.731-1.098,1.269
		c-1.072,0.737-2.521,0.477-3.262-0.603C21.262,16.583,21.53,15.122,22.602,14.386"/>
	<path clip-path="url(#SVGID_2_)" fill="#DAA250" d="M28.043,11.518c-0.021-0.062,0.017-0.13,0.078-0.151l0.154-0.055l3.526,1.824
		l0.006-0.001l-0.892-2.548c-0.021-0.061,0.009-0.133,0.077-0.158l0.569-0.199c0.061-0.022,0.136,0.016,0.158,0.076l1.453,4.15
		c0.021,0.062-0.017,0.131-0.078,0.152l-0.15,0.053l-3.574-1.926l-0.006,0.003l0.929,2.651c0.021,0.062-0.009,0.135-0.077,0.157
		l-0.562,0.199c-0.062,0.02-0.137-0.015-0.159-0.077L28.043,11.518z"/>
	<path clip-path="url(#SVGID_2_)" fill="#DAA250" d="M36.259,9.405c-0.006-0.064,0.041-0.128,0.113-0.134l2.654-0.223
		c0.072-0.006,0.129,0.048,0.134,0.114l0.045,0.534c0.005,0.064-0.042,0.129-0.114,0.135l-1.929,0.161l0.09,1.07l1.611-0.136
		c0.064-0.004,0.127,0.048,0.133,0.114l0.045,0.541c0.007,0.071-0.048,0.129-0.113,0.135l-1.61,0.134l0.096,1.141l1.93-0.161
		c0.071-0.007,0.13,0.048,0.136,0.112l0.045,0.535c0.006,0.067-0.042,0.127-0.114,0.135l-2.654,0.223
		c-0.072,0.006-0.129-0.048-0.135-0.114L36.259,9.405z"/>
	<path clip-path="url(#SVGID_2_)" fill="#DAA250" d="M43.512,9.329c0.011-0.065,0.072-0.114,0.144-0.103l1.847,0.293
		c0.776,0.123,1.309,0.844,1.188,1.613c-0.095,0.593-0.565,1.015-1.162,1.153l0.624,1.78c0.03,0.091-0.03,0.188-0.142,0.171
		l-0.677-0.109c-0.06-0.008-0.086-0.046-0.094-0.075l-0.586-1.847l-0.719-0.115l-0.263,1.648c-0.009,0.064-0.077,0.112-0.142,0.102
		l-0.595-0.093c-0.069-0.013-0.111-0.078-0.103-0.143L43.512,9.329z M45.104,11.568c0.343,0.054,0.687-0.196,0.744-0.558
		c0.056-0.341-0.198-0.673-0.54-0.728l-1.052-0.167L44.051,11.4L45.104,11.568z"/>
	<path clip-path="url(#SVGID_2_)" fill="#DAA250" d="M49.33,14.538l0.374-0.284c0.083-0.066,0.187-0.024,0.224,0.042
		c0.021,0.03,0.364,0.59,0.758,0.752c0.314,0.131,0.637,0.022,0.745-0.238c0.129-0.307-0.045-0.626-0.469-1.042
		c-0.474-0.464-0.892-1.061-0.596-1.775c0.225-0.537,0.88-0.994,1.843-0.597c0.617,0.256,0.96,0.765,1.043,0.906
		c0.046,0.061,0.021,0.171-0.047,0.214l-0.372,0.249c-0.077,0.052-0.189,0.064-0.241-0.014c-0.036-0.051-0.371-0.543-0.704-0.682
		c-0.346-0.142-0.628,0.01-0.709,0.203c-0.118,0.286,0.025,0.571,0.434,0.973c0.489,0.478,1.023,1.108,0.698,1.888
		c-0.257,0.622-1.035,0.972-1.889,0.62c-0.764-0.315-1.062-0.858-1.137-1.022C49.254,14.655,49.236,14.611,49.33,14.538"/>
	<path clip-path="url(#SVGID_2_)" fill="#DAA250" d="M30.064,64.053c1.076,0.788,1.303,2.283,0.514,3.361
		c-0.787,1.074-2.275,1.299-3.35,0.512c-1.076-0.788-1.304-2.27-0.517-3.345C27.5,63.505,28.989,63.265,30.064,64.053
		 M27.741,67.227c0.678,0.496,1.643,0.352,2.139-0.326c0.496-0.678,0.351-1.652-0.327-2.148c-0.677-0.496-1.646-0.338-2.142,0.341
		C26.915,65.771,27.062,66.729,27.741,67.227"/>
	<path clip-path="url(#SVGID_2_)" fill="#DAA250" d="M34.718,66.928c0.021-0.063,0.091-0.104,0.16-0.078l2.56,0.89
		c0.069,0.023,0.099,0.098,0.078,0.161l-0.179,0.516c-0.022,0.062-0.092,0.103-0.161,0.078l-1.861-0.647l-0.411,1.183l1.553,0.54
		c0.063,0.021,0.1,0.099,0.078,0.16l-0.179,0.516c-0.022,0.063-0.098,0.102-0.161,0.078l-1.554-0.541l-0.553,1.594
		c-0.021,0.062-0.098,0.1-0.161,0.077l-0.578-0.201c-0.069-0.024-0.1-0.098-0.078-0.16L34.718,66.928z"/>
	<path clip-path="url(#SVGID_2_)" fill="#DAA250" d="M46.405,68.226c0.597-0.072,1.193,0.092,1.69,0.421
		c0.059,0.048,0.077,0.126,0.03,0.186l-0.359,0.479c-0.047,0.059-0.105,0.066-0.172,0.021c-0.315-0.218-0.682-0.308-1.046-0.264
		c-0.828,0.099-1.398,0.884-1.296,1.711c0.099,0.82,0.84,1.437,1.674,1.337c0.37-0.045,0.642-0.191,0.767-0.26l-0.067-0.563
		l-0.53,0.064c-0.073,0.009-0.132-0.037-0.14-0.104l-0.064-0.522c-0.008-0.072,0.037-0.132,0.111-0.14l1.271-0.152
		c0.066-0.008,0.126,0.044,0.134,0.111l0.206,1.693c0.007,0.052-0.016,0.088-0.04,0.111c0,0-0.63,0.512-1.589,0.627
		c-1.317,0.157-2.505-0.761-2.666-2.084C44.157,69.574,45.089,68.383,46.405,68.226"/>
	<path clip-path="url(#SVGID_2_)" fill="#DAA250" d="M51.218,67.289c-0.028-0.062-0.003-0.14,0.062-0.167l1.739-0.78
		c0.73-0.328,1.586-0.011,1.911,0.713c0.251,0.56,0.085,1.181-0.349,1.631l1.524,1.171c0.077,0.059,0.079,0.176-0.023,0.224
		l-0.64,0.284c-0.055,0.024-0.098,0.009-0.121-0.011l-1.53-1.248l-0.676,0.303l0.695,1.549c0.028,0.062-0.003,0.141-0.062,0.168
		l-0.561,0.25c-0.065,0.03-0.139-0.002-0.167-0.063L51.218,67.289z M53.821,68.31c0.322-0.145,0.479-0.549,0.324-0.889
		c-0.144-0.323-0.544-0.465-0.866-0.32l-0.989,0.444l0.542,1.21L53.821,68.31z"/>
	<path clip-path="url(#SVGID_2_)" fill="#DAA250" d="M58.49,62.63c0.992-0.892,2.502-0.808,3.392,0.182s0.802,2.488-0.19,3.381
		c-0.991,0.891-2.486,0.812-3.377-0.177C57.427,65.024,57.499,63.521,58.49,62.63 M61.114,65.548
		c0.624-0.561,0.684-1.533,0.122-2.157c-0.56-0.623-1.543-0.68-2.168-0.118s-0.67,1.54-0.107,2.163
		C59.52,66.059,60.489,66.11,61.114,65.548"/>
	<path clip-path="url(#SVGID_2_)" fill="#DAA250" d="M62.104,59.148c-0.095-0.021-0.129-0.101-0.084-0.182l0.289-0.54
		c0.025-0.049,0.092-0.072,0.141-0.062l2.672,0.648l0.012-0.024l-1.919-2.233c-0.028-0.03-0.042-0.076-0.01-0.134l0.056-0.107
		c0.031-0.059,0.076-0.071,0.118-0.064l2.925,0.359l0.013-0.024l-2.022-1.857c-0.034-0.032-0.049-0.102-0.024-0.148l0.289-0.541
		c0.045-0.082,0.129-0.098,0.198-0.029l3.352,3.229c0.04,0.036,0.052,0.104,0.025,0.148l-0.05,0.095
		c-0.029,0.053-0.077,0.072-0.119,0.064l-3.225-0.376l-0.017,0.029l2.104,2.469c0.025,0.036,0.043,0.075,0.011,0.135l-0.05,0.094
		c-0.026,0.046-0.086,0.074-0.141,0.062L62.104,59.148z"/>
	<path clip-path="url(#SVGID_2_)" fill="#DAA250" d="M66.28,50.773l-0.193,1c-0.015,0.072-0.082,0.113-0.149,0.1l-0.536-0.104
		c-0.063-0.012-0.112-0.075-0.1-0.148l0.554-2.856c0.014-0.073,0.083-0.113,0.149-0.1l0.536,0.104
		c0.064,0.012,0.113,0.076,0.1,0.147l-0.194,1.001l3.668,0.71c0.065,0.014,0.112,0.084,0.102,0.149l-0.12,0.608
		c-0.011,0.064-0.083,0.112-0.147,0.101L66.28,50.773z"/>
	<path clip-path="url(#SVGID_2_)" fill="#DAA250" d="M66.213,45.724c-0.064,0.005-0.131-0.05-0.137-0.115l-0.055-0.617
		c-0.007-0.073,0.047-0.131,0.113-0.138l1.757-0.162l-0.197-2.163l-1.755,0.162c-0.067,0.007-0.13-0.04-0.139-0.114l-0.055-0.61
		c-0.006-0.065,0.048-0.131,0.114-0.139l4.387-0.404c0.066-0.006,0.131,0.047,0.137,0.113l0.057,0.611
		c0.005,0.072-0.048,0.132-0.116,0.138l-1.828,0.168l0.196,2.163l1.829-0.169c0.065-0.007,0.13,0.041,0.136,0.114l0.056,0.617
		c0.007,0.065-0.048,0.131-0.112,0.137L66.213,45.724z"/>
</g>
<g>
	<defs>
		
			<rect id="SVGID_3_" x="30.546" y="-19.18" transform="matrix(-0.4795 -0.8775 0.8775 -0.4795 23.9881 95.1179)" width="19.309" height="119.25"/>
	</defs>
	<clipPath id="SVGID_4_">
		<use xlink:href="#SVGID_3_"  overflow="visible"/>
	</clipPath>
	<path clip-path="url(#SVGID_4_)" fill="#DAA250" d="M41.052,69.62c-16.249,0-29.468-13.219-29.468-29.467
		c0-16.249,13.219-29.469,29.468-29.469c16.249,0,29.47,13.22,29.47,29.469C70.521,56.401,57.301,69.62,41.052,69.62 M41.052,11.684
		c-15.697,0-28.468,12.771-28.468,28.469c0,15.697,12.771,28.467,28.468,28.467c15.697,0,28.47-12.771,28.47-28.467
		C69.521,24.455,56.749,11.684,41.052,11.684"/>
</g>
</svg>
