<?xml version="1.0" encoding="utf-8"?>
<!-- Generator: Adobe Illustrator 16.0.4, SVG Export Plug-In . SVG Version: 6.00 Build 0)  -->
<!DOCTYPE svg PUBLIC "-//W3C//DTD SVG 1.1//EN" "http://www.w3.org/Graphics/SVG/1.1/DTD/svg11.dtd">
<svg version="1.1" id="Layer_1" xmlns="http://www.w3.org/2000/svg" xmlns:xlink="http://www.w3.org/1999/xlink" x="0px" y="0px"
	 width="113.902px" height="100.3px" viewBox="0 0 113.902 100.3" enable-background="new 0 0 113.902 100.3" xml:space="preserve">
<g>
	<defs>
		<rect id="SVGID_1_" width="113.902" height="100.3"/>
	</defs>
	<clipPath id="SVGID_2_">
		<use xlink:href="#SVGID_1_"  overflow="visible"/>
	</clipPath>
	<path clip-path="url(#SVGID_2_)" fill="#DAA250" d="M57.478,70.955c-11.541,0-20.93-9.388-20.93-20.929s9.389-20.93,20.93-20.93
		s20.93,9.389,20.93,20.93S69.019,70.955,57.478,70.955 M57.478,30.096c-10.989,0-19.93,8.94-19.93,19.93
		c0,10.989,8.941,19.929,19.93,19.929c10.989,0,19.93-8.939,19.93-19.929C77.407,39.036,68.467,30.096,57.478,30.096"/>
	<path clip-path="url(#SVGID_2_)" fill="#DAA250" d="M51.609,53.117l1.081-1.908c0.184-0.299,0.621-0.253,0.782-0.139
		c0.092,0.047,1.747,1.266,3.265,1.266c0.92,0,1.587-0.575,1.587-1.38c0-0.966-0.805-1.702-2.368-2.322
		c-1.978-0.783-4.461-2.324-4.461-5.082c0-2.277,1.77-4.577,5.311-4.577c2.392,0,4.231,1.219,4.921,1.725
		c0.277,0.161,0.23,0.575,0.138,0.735l-1.173,1.772c-0.16,0.253-0.574,0.46-0.781,0.299c-0.207-0.116-1.886-1.38-3.288-1.38
		c-0.828,0-1.45,0.552-1.45,1.173c0,0.85,0.691,1.494,2.507,2.23c1.793,0.713,4.645,2.115,4.645,5.243
		c0,2.368-2.046,4.76-5.427,4.76c-2.989,0-4.644-1.241-5.174-1.77C51.496,53.53,51.425,53.438,51.609,53.117"/>
	<rect x="52.089" y="61.977" clip-path="url(#SVGID_2_)" fill="#DAA250" width="9.831" height="1"/>
	<path clip-path="url(#SVGID_2_)" fill="#DAA250" d="M12.864,38.339l-0.282-0.295c-0.064-0.065-0.037-0.158,0.015-0.196
		c0.025-0.023,0.474-0.372,0.577-0.728c0.081-0.284-0.043-0.551-0.278-0.618c-0.279-0.08-0.538,0.1-0.855,0.505
		c-0.356,0.454-0.831,0.873-1.476,0.687c-0.486-0.139-0.945-0.662-0.695-1.53c0.16-0.557,0.567-0.901,0.681-0.987
		c0.048-0.045,0.145-0.035,0.189,0.018l0.252,0.298c0.053,0.063,0.073,0.158,0.011,0.21c-0.04,0.036-0.433,0.372-0.52,0.673
		c-0.09,0.312,0.069,0.54,0.244,0.591c0.257,0.073,0.491-0.078,0.798-0.469c0.365-0.469,0.859-0.989,1.563-0.786
		c0.562,0.161,0.941,0.797,0.72,1.567c-0.198,0.689-0.636,1-0.772,1.08C12.972,38.395,12.938,38.414,12.864,38.339"/>
	<path clip-path="url(#SVGID_2_)" fill="#DAA250" d="M12.251,31.525l-0.331,0.806c-0.024,0.057-0.089,0.08-0.142,0.058l-0.43-0.177
		c-0.052-0.022-0.082-0.083-0.059-0.142l0.947-2.3c0.024-0.058,0.089-0.081,0.141-0.059l0.431,0.177
		c0.052,0.023,0.083,0.084,0.058,0.142l-0.331,0.806l2.945,1.214c0.052,0.023,0.08,0.089,0.058,0.142l-0.201,0.489
		c-0.023,0.053-0.089,0.081-0.142,0.06L12.251,31.525z"/>
	<path clip-path="url(#SVGID_2_)" fill="#DAA250" d="M16.677,29.277l-2.489-3.405c-0.022-0.031-0.032-0.07-0.008-0.115l0.027-0.05
		c0.029-0.05,0.064-0.056,0.102-0.054l4.199,0.326c0.081,0.007,0.123,0.083,0.082,0.157l-0.24,0.433
		c-0.041,0.075-0.091,0.093-0.18,0.089l-0.673-0.055l-0.825,1.488l0.402,0.542c0.039,0.048,0.063,0.12,0.019,0.199l-0.24,0.433
		C16.812,29.34,16.725,29.345,16.677,29.277 M16.81,26.542l-1.37-0.11l-0.009,0.014l0.824,1.095L16.81,26.542z"/>
	<path clip-path="url(#SVGID_2_)" fill="#DAA250" d="M16.938,21.461c-0.046-0.034-0.052-0.103-0.018-0.148l0.085-0.115l3.433-0.393
		L20.44,20.8l-1.884-1.405c-0.046-0.035-0.059-0.101-0.022-0.152l0.313-0.42c0.034-0.045,0.106-0.055,0.152-0.021l3.07,2.29
		c0.046,0.034,0.052,0.102,0.017,0.147l-0.082,0.111l-3.516,0.344l-0.003,0.005l1.962,1.463c0.046,0.034,0.059,0.102,0.021,0.152
		l-0.309,0.415c-0.034,0.045-0.106,0.055-0.152,0.022L16.938,21.461z"/>
	<path clip-path="url(#SVGID_2_)" fill="#DAA250" d="M21.416,16.005c-0.041-0.04-0.045-0.108-0.005-0.148l0.947-0.958
		c0.771-0.781,2.038-0.792,2.814-0.025c0.785,0.776,0.788,2.042,0.016,2.822l-0.947,0.959c-0.04,0.04-0.109,0.037-0.149-0.003
		L21.416,16.005z M24.646,17.258c0.52-0.526,0.503-1.302-0.026-1.826c-0.526-0.52-1.302-0.528-1.822-0.001l-0.456,0.461l1.848,1.827
		L24.646,17.258z"/>
	<path clip-path="url(#SVGID_2_)" fill="#DAA250" d="M30.782,7.927c0.952-0.623,2.213-0.354,2.832,0.598
		c0.619,0.952,0.35,2.207-0.602,2.83c-0.952,0.622-2.202,0.36-2.821-0.592C29.571,9.811,29.83,8.549,30.782,7.927 M32.608,10.736
		c0.601-0.393,0.776-1.206,0.386-1.807c-0.39-0.599-1.21-0.775-1.811-0.382c-0.599,0.391-0.764,1.211-0.374,1.812
		C31.2,10.959,32.008,11.129,32.608,10.736"/>
	<path clip-path="url(#SVGID_2_)" fill="#DAA250" d="M35.552,5.338c-0.024-0.052,0-0.119,0.052-0.144l0.49-0.228
		c0.057-0.027,0.119,0,0.144,0.052l0.986,2.102c0.205,0.438,0.665,0.643,1.114,0.433c0.448-0.21,0.591-0.696,0.389-1.129
		l-0.988-2.108c-0.025-0.051-0.005-0.117,0.051-0.144l0.491-0.229c0.051-0.024,0.12,0,0.143,0.052l1.003,2.14
		c0.366,0.781,0.039,1.705-0.775,2.086c-0.81,0.379-1.731,0.038-2.097-0.743L35.552,5.338z"/>
	<path clip-path="url(#SVGID_2_)" fill="#DAA250" d="M42.486,3.083l-0.829,0.271c-0.06,0.019-0.118-0.015-0.136-0.07l-0.144-0.442
		c-0.018-0.055,0.01-0.117,0.07-0.137l2.367-0.773c0.06-0.02,0.118,0.014,0.136,0.069l0.144,0.442
		c0.018,0.055-0.01,0.118-0.07,0.137l-0.828,0.271l0.984,3.03C44.198,5.936,44.166,6,44.11,6.019l-0.503,0.164
		C43.552,6.2,43.488,6.167,43.47,6.113L42.486,3.083z"/>
	<path clip-path="url(#SVGID_2_)" fill="#DAA250" d="M51.635,2.115l-0.001-0.011l-0.135-0.116c-0.253-0.21-0.446-0.434-0.48-0.768
		c-0.051-0.428,0.247-0.957,0.959-1.041c0.632-0.075,1.115,0.285,1.176,0.793c0.069,0.582-0.466,0.994-0.567,1.11l0.728,0.578
		c0.068-0.192,0.114-0.432,0.129-0.652c0.008-0.121,0.034-0.186,0.169-0.163l0.321,0.054c0.151,0.021,0.127,0.15,0.122,0.209
		c-0.048,0.418-0.185,0.795-0.243,0.938l0.559,0.416c0.076,0.059,0.139,0.115,0.019,0.26l-0.203,0.265
		C54.126,4.057,54.039,4.08,53.938,4l-0.456-0.364c-0.087,0.13-0.44,0.539-1.173,0.626c-0.718,0.085-1.249-0.343-1.318-0.92
		C50.903,2.597,51.541,2.189,51.635,2.115 M52.547,1.079c-0.025-0.215-0.236-0.402-0.53-0.367c-0.26,0.032-0.396,0.225-0.372,0.434
		C51.664,1.344,51.809,1.459,52,1.62l0.139,0.109C52.217,1.668,52.59,1.429,52.547,1.079 M52.31,3.649
		c0.424-0.05,0.615-0.313,0.688-0.419l-0.947-0.792c-0.083,0.066-0.451,0.3-0.397,0.751C51.69,3.5,51.977,3.689,52.31,3.649"/>
	<path clip-path="url(#SVGID_2_)" fill="#DAA250" d="M62.801,0.007c0.511,0.044,0.982,0.284,1.34,0.646
		c0.041,0.049,0.041,0.118-0.008,0.159L63.749,1.15c-0.05,0.041-0.101,0.037-0.147-0.013c-0.226-0.236-0.517-0.375-0.829-0.402
		c-0.71-0.061-1.324,0.496-1.385,1.204c-0.061,0.702,0.45,1.344,1.165,1.406c0.318,0.027,0.57-0.048,0.688-0.083l0.042-0.482
		l-0.454-0.039c-0.062-0.005-0.104-0.054-0.1-0.111l0.039-0.447c0.005-0.063,0.055-0.104,0.117-0.099l1.09,0.094
		c0.057,0.005,0.098,0.06,0.093,0.117l-0.125,1.449c-0.004,0.045-0.029,0.072-0.054,0.086c0,0-0.616,0.319-1.439,0.247
		c-1.129-0.096-1.96-1.069-1.862-2.202C60.685,0.743,61.671-0.09,62.801,0.007"/>
	<path clip-path="url(#SVGID_2_)" fill="#DAA250" d="M67.664,0.843c0.012-0.056,0.067-0.097,0.128-0.083l2.269,0.484
		c0.06,0.013,0.094,0.073,0.083,0.128l-0.099,0.455c-0.012,0.056-0.067,0.097-0.129,0.083l-1.647-0.351l-0.196,0.91l1.376,0.294
		c0.056,0.013,0.095,0.073,0.083,0.129l-0.099,0.461c-0.013,0.06-0.072,0.094-0.128,0.083l-1.376-0.294l-0.208,0.972l1.648,0.352
		c0.061,0.013,0.095,0.072,0.083,0.128l-0.098,0.455c-0.012,0.056-0.067,0.097-0.128,0.083l-2.268-0.484
		c-0.061-0.013-0.095-0.073-0.083-0.128L67.664,0.843z"/>
	<path clip-path="url(#SVGID_2_)" fill="#DAA250" d="M73.763,3.026l-0.824-0.28c-0.06-0.021-0.086-0.083-0.067-0.137l0.15-0.442
		c0.018-0.054,0.077-0.088,0.138-0.068l2.353,0.8c0.061,0.021,0.086,0.084,0.068,0.138l-0.15,0.441
		c-0.019,0.054-0.078,0.088-0.138,0.068l-0.824-0.281l-1.026,3.023c-0.019,0.053-0.084,0.086-0.138,0.067l-0.501-0.17
		c-0.054-0.018-0.086-0.084-0.067-0.138L73.763,3.026z"/>
	<path clip-path="url(#SVGID_2_)" fill="#DAA250" d="M80.069,8.667l0.353-0.207c0.078-0.047,0.162,0.001,0.188,0.061
		c0.017,0.029,0.253,0.547,0.575,0.729c0.258,0.145,0.547,0.085,0.667-0.128c0.143-0.253,0.026-0.547-0.295-0.95
		c-0.36-0.45-0.659-1.011-0.329-1.596c0.248-0.441,0.863-0.767,1.651-0.324c0.506,0.285,0.748,0.761,0.805,0.891
		c0.033,0.057,0.001,0.15-0.062,0.18L83.274,7.5c-0.073,0.037-0.17,0.035-0.207-0.038c-0.026-0.047-0.264-0.508-0.536-0.661
		c-0.282-0.159-0.543-0.058-0.632,0.101c-0.131,0.234-0.037,0.495,0.273,0.885c0.371,0.464,0.765,1.065,0.404,1.704
		c-0.288,0.511-0.994,0.734-1.693,0.34c-0.625-0.352-0.827-0.851-0.873-1.001C79.991,8.761,79.98,8.722,80.069,8.667"/>
	<path clip-path="url(#SVGID_2_)" fill="#DAA250" d="M86.741,8.863c0.034-0.046,0.102-0.061,0.151-0.023l1.87,1.366
		c0.05,0.037,0.056,0.105,0.022,0.151l-0.272,0.376c-0.035,0.046-0.102,0.061-0.152,0.024l-1.359-0.994l-0.548,0.753l1.135,0.829
		c0.047,0.035,0.057,0.106,0.023,0.152l-0.277,0.381c-0.037,0.05-0.104,0.057-0.15,0.023l-1.135-0.829l-0.585,0.804l1.359,0.994
		c0.051,0.037,0.058,0.104,0.023,0.15l-0.273,0.377c-0.033,0.046-0.101,0.061-0.15,0.024l-1.869-1.367
		c-0.051-0.037-0.058-0.105-0.024-0.151L86.741,8.863z"/>
	<path clip-path="url(#SVGID_2_)" fill="#DAA250" d="M91.422,12.543c0.039-0.042,0.107-0.049,0.153-0.007l0.386,0.354
		c0.042,0.039,0.045,0.111,0.007,0.153l-2.157,2.345l1.07,0.98c0.046,0.043,0.045,0.112,0.007,0.154l-0.315,0.342
		c-0.039,0.042-0.106,0.049-0.153,0.006l-1.535-1.407c-0.047-0.042-0.046-0.11-0.007-0.152L91.422,12.543z"/>
	<path clip-path="url(#SVGID_2_)" fill="#DAA250" d="M95.315,16.384c0.043-0.037,0.111-0.037,0.152,0.011l1.515,1.751
		c0.041,0.048,0.032,0.115-0.01,0.152l-0.353,0.306c-0.042,0.037-0.11,0.036-0.151-0.011l-1.103-1.273l-0.703,0.61l0.921,1.062
		c0.036,0.043,0.031,0.116-0.012,0.153l-0.356,0.309c-0.046,0.041-0.114,0.032-0.152-0.011l-0.919-1.063l-0.751,0.651l1.103,1.275
		c0.041,0.047,0.032,0.115-0.011,0.152l-0.352,0.305c-0.043,0.037-0.111,0.037-0.152-0.011l-1.516-1.751
		c-0.041-0.048-0.032-0.115,0.011-0.152L95.315,16.384z"/>
	<path clip-path="url(#SVGID_2_)" fill="#DAA250" d="M100.198,22.407c0.321,0.478,0.401,0.924,0.328,1.438
		c-0.009,0.068-0.065,0.106-0.129,0.093l-0.491-0.089c-0.061-0.007-0.092-0.055-0.08-0.118c0.042-0.316-0.031-0.65-0.209-0.915
		c-0.406-0.605-1.214-0.717-1.811-0.319c-0.591,0.395-0.788,1.183-0.381,1.789c0.189,0.284,0.461,0.453,0.755,0.544
		c0.059,0.015,0.089,0.071,0.08,0.118l-0.107,0.495c-0.007,0.061-0.075,0.092-0.131,0.081c-0.527-0.113-0.947-0.422-1.229-0.843
		c-0.635-0.946-0.394-2.21,0.552-2.841C98.291,21.208,99.563,21.461,100.198,22.407"/>
	<path clip-path="url(#SVGID_2_)" fill="#DAA250" d="M102.209,27.293l-0.395-0.775c-0.028-0.056-0.003-0.12,0.048-0.145l0.415-0.212
		c0.051-0.025,0.117-0.008,0.146,0.048l1.127,2.214c0.028,0.056,0.003,0.119-0.048,0.144l-0.415,0.212
		c-0.051,0.026-0.117,0.008-0.146-0.048l-0.395-0.774l-2.842,1.446c-0.051,0.026-0.119,0.004-0.146-0.047l-0.239-0.471
		c-0.026-0.051-0.004-0.119,0.047-0.145L102.209,27.293z"/>
	<path clip-path="url(#SVGID_2_)" fill="#DAA250" d="M104.784,31.515c0.054-0.02,0.117,0.005,0.14,0.063l0.807,2.167
		c0.022,0.059-0.009,0.12-0.063,0.14l-0.437,0.162c-0.053,0.02-0.117-0.005-0.139-0.063l-0.587-1.576l-0.874,0.325l0.49,1.315
		c0.02,0.054-0.01,0.119-0.063,0.139l-0.442,0.165c-0.058,0.021-0.118-0.011-0.139-0.064l-0.489-1.315l-0.932,0.347l0.587,1.577
		c0.021,0.057-0.011,0.118-0.063,0.139l-0.438,0.162c-0.053,0.02-0.116-0.005-0.139-0.064l-0.808-2.167
		c-0.021-0.058,0.011-0.119,0.063-0.139L104.784,31.515z"/>
	<path clip-path="url(#SVGID_2_)" fill="#DAA250" d="M106.676,37.188c0.056-0.012,0.115,0.021,0.128,0.076l0.304,1.313
		c0.248,1.069-0.419,2.146-1.482,2.392c-1.075,0.248-2.147-0.426-2.395-1.495l-0.304-1.313c-0.013-0.055,0.027-0.111,0.082-0.124
		L106.676,37.188z M103.891,39.251c0.167,0.721,0.832,1.121,1.558,0.953c0.72-0.167,1.141-0.818,0.974-1.539l-0.146-0.631
		l-2.531,0.586L103.891,39.251z"/>
	<path clip-path="url(#SVGID_2_)" fill="#DAA250" d="M103.96,60.068l0.293,0.283c0.066,0.064,0.044,0.157-0.007,0.197
		c-0.023,0.024-0.46,0.391-0.548,0.75c-0.07,0.288,0.064,0.549,0.302,0.608c0.281,0.068,0.533-0.121,0.835-0.539
		c0.338-0.469,0.797-0.905,1.449-0.745c0.491,0.121,0.971,0.625,0.755,1.504c-0.139,0.562-0.532,0.923-0.641,1.013
		c-0.048,0.047-0.146,0.04-0.191-0.011l-0.264-0.288c-0.056-0.06-0.079-0.154-0.019-0.209c0.038-0.038,0.418-0.39,0.492-0.694
		c0.077-0.313-0.09-0.537-0.267-0.581c-0.26-0.062-0.487,0.099-0.779,0.5c-0.347,0.483-0.819,1.023-1.532,0.849
		c-0.567-0.141-0.973-0.762-0.781-1.539c0.171-0.697,0.598-1.026,0.729-1.11C103.85,60.018,103.884,59.998,103.96,60.068"/>
	<path clip-path="url(#SVGID_2_)" fill="#DAA250" d="M104.837,66.877l0.301-0.816c0.022-0.06,0.086-0.084,0.14-0.065l0.438,0.162
		c0.054,0.021,0.086,0.08,0.064,0.14l-0.86,2.334c-0.021,0.059-0.086,0.084-0.139,0.062l-0.438-0.161
		c-0.054-0.019-0.086-0.08-0.063-0.138l0.301-0.818l-2.996-1.104c-0.054-0.021-0.084-0.085-0.064-0.14l0.184-0.495
		c0.02-0.055,0.085-0.085,0.139-0.064L104.837,66.877z"/>
	<path clip-path="url(#SVGID_2_)" fill="#DAA250" d="M100.502,69.272l2.623,3.305c0.022,0.031,0.035,0.07,0.012,0.115l-0.025,0.05
		c-0.025,0.051-0.062,0.059-0.1,0.059l-4.209-0.159c-0.081-0.003-0.127-0.077-0.089-0.153l0.224-0.442
		c0.038-0.076,0.087-0.096,0.176-0.096l0.674,0.028l0.767-1.521l-0.423-0.524c-0.041-0.048-0.068-0.118-0.027-0.199l0.223-0.443
		C100.365,69.215,100.451,69.208,100.502,69.272 M100.478,72.014l1.374,0.056l0.008-0.015l-0.867-1.062L100.478,72.014z"/>
	<path clip-path="url(#SVGID_2_)" fill="#DAA250" d="M100.533,77.102c0.047,0.031,0.056,0.1,0.023,0.146l-0.08,0.118l-3.41,0.525
		l-0.003,0.005l1.935,1.33c0.047,0.031,0.063,0.099,0.027,0.149l-0.296,0.431c-0.032,0.048-0.104,0.062-0.15,0.028l-3.151-2.167
		c-0.048-0.032-0.057-0.1-0.024-0.146l0.077-0.112l3.496-0.481l0.003-0.004l-2.014-1.384c-0.047-0.033-0.063-0.099-0.028-0.151
		l0.293-0.426c0.032-0.047,0.104-0.06,0.15-0.027L100.533,77.102z"/>
	<path clip-path="url(#SVGID_2_)" fill="#DAA250" d="M96.27,82.724c0.042,0.038,0.049,0.107,0.011,0.149l-0.912,0.994
		c-0.741,0.809-2.008,0.871-2.813,0.136c-0.814-0.743-0.865-2.007-0.123-2.817l0.912-0.994c0.037-0.042,0.105-0.041,0.147-0.002
		L96.27,82.724z M92.989,81.603c-0.5,0.546-0.454,1.319,0.096,1.821c0.546,0.497,1.322,0.476,1.822-0.071l0.438-0.479l-1.918-1.75
		L92.989,81.603z"/>
	<path clip-path="url(#SVGID_2_)" fill="#DAA250" d="M87.224,91.151c-0.929,0.657-2.199,0.436-2.855-0.493
		c-0.655-0.928-0.435-2.189,0.492-2.847c0.928-0.656,2.188-0.44,2.844,0.488C88.36,89.228,88.15,90.495,87.224,91.151
		 M85.287,88.415c-0.584,0.413-0.729,1.232-0.314,1.816c0.412,0.585,1.239,0.731,1.823,0.318c0.585-0.414,0.719-1.238,0.305-1.823
		C86.688,88.143,85.872,88.002,85.287,88.415"/>
	<path clip-path="url(#SVGID_2_)" fill="#DAA250" d="M82.568,93.923c0.025,0.051,0.004,0.119-0.047,0.146l-0.479,0.248
		c-0.056,0.029-0.119,0.004-0.146-0.046l-1.067-2.066c-0.222-0.429-0.689-0.616-1.129-0.389c-0.439,0.226-0.562,0.718-0.344,1.143
		l1.07,2.07c0.025,0.051,0.009,0.118-0.046,0.146l-0.48,0.248c-0.051,0.025-0.119,0.004-0.145-0.047l-1.087-2.101
		c-0.396-0.768-0.106-1.705,0.692-2.118c0.793-0.409,1.725-0.103,2.121,0.664L82.568,93.923z"/>
	<path clip-path="url(#SVGID_2_)" fill="#DAA250" d="M75.729,96.437l0.817-0.302c0.059-0.021,0.12,0.012,0.139,0.065l0.162,0.436
		c0.02,0.054-0.006,0.117-0.064,0.14l-2.334,0.859c-0.059,0.022-0.118-0.011-0.139-0.063l-0.161-0.438
		c-0.021-0.052,0.005-0.117,0.063-0.138l0.817-0.301l-1.104-2.987c-0.02-0.054,0.011-0.12,0.064-0.139l0.496-0.185
		c0.055-0.019,0.119,0.012,0.14,0.064L75.729,96.437z"/>
	<path clip-path="url(#SVGID_2_)" fill="#DAA250" d="M66.619,97.769l0.002,0.01l0.139,0.111c0.263,0.199,0.464,0.415,0.512,0.747
		c0.068,0.427-0.208,0.967-0.915,1.079c-0.628,0.102-1.128-0.238-1.208-0.744c-0.093-0.578,0.425-1.014,0.521-1.133l-0.75-0.548
		c-0.061,0.195-0.097,0.438-0.103,0.656c-0.003,0.122-0.027,0.189-0.162,0.17l-0.323-0.041c-0.152-0.015-0.133-0.145-0.131-0.203
		c0.03-0.42,0.153-0.803,0.205-0.949l-0.575-0.391c-0.078-0.056-0.144-0.109-0.03-0.26L63.992,96
		c0.058-0.071,0.146-0.098,0.25-0.021l0.47,0.344c0.082-0.133,0.418-0.556,1.147-0.673c0.713-0.115,1.263,0.293,1.354,0.866
		C67.332,97.256,66.711,97.69,66.619,97.769 M65.883,96.262c-0.421,0.067-0.603,0.339-0.671,0.447l0.979,0.753
		c0.081-0.069,0.438-0.317,0.366-0.768C66.508,96.387,66.214,96.208,65.883,96.262 M65.749,98.84
		c0.034,0.215,0.253,0.393,0.545,0.346c0.258-0.041,0.388-0.241,0.354-0.449c-0.026-0.197-0.176-0.305-0.373-0.458l-0.144-0.104
		C66.056,98.238,65.693,98.492,65.749,98.84"/>
	<path clip-path="url(#SVGID_2_)" fill="#DAA250" d="M55.529,100.298c-0.511-0.024-0.989-0.247-1.359-0.596
		c-0.043-0.048-0.045-0.116,0.002-0.159l0.37-0.351c0.048-0.043,0.098-0.041,0.147,0.006c0.234,0.229,0.529,0.356,0.841,0.371
		c0.71,0.035,1.302-0.545,1.336-1.255c0.034-0.705-0.499-1.328-1.215-1.362c-0.317-0.015-0.566,0.07-0.682,0.11l-0.023,0.481
		l0.454,0.022c0.063,0.002,0.106,0.05,0.103,0.107l-0.022,0.447c-0.003,0.063-0.051,0.107-0.113,0.104l-1.09-0.053
		c-0.057-0.003-0.1-0.057-0.097-0.112l0.071-1.453c0.002-0.046,0.026-0.073,0.049-0.089c0,0,0.603-0.341,1.426-0.301
		c1.129,0.055,1.994,0.996,1.939,2.131C57.611,99.483,56.659,100.353,55.529,100.298"/>
	<path clip-path="url(#SVGID_2_)" fill="#DAA250" d="M50.631,99.65c-0.01,0.056-0.063,0.099-0.125,0.088l-2.279-0.398
		c-0.062-0.01-0.098-0.069-0.088-0.125l0.08-0.459c0.01-0.055,0.063-0.098,0.125-0.087l1.658,0.289l0.16-0.919l-1.384-0.241
		c-0.055-0.009-0.097-0.069-0.087-0.125l0.081-0.464c0.01-0.062,0.069-0.098,0.125-0.088l1.383,0.241l0.171-0.981l-1.658-0.289
		c-0.061-0.01-0.098-0.068-0.088-0.125l0.08-0.459c0.01-0.055,0.064-0.098,0.125-0.087l2.28,0.397
		c0.061,0.011,0.097,0.068,0.087,0.125L50.631,99.65z"/>
	<path clip-path="url(#SVGID_2_)" fill="#DAA250" d="M44.481,97.705l0.835,0.246c0.061,0.02,0.09,0.08,0.073,0.136l-0.133,0.445
		c-0.015,0.056-0.074,0.092-0.133,0.073l-2.388-0.707c-0.06-0.017-0.089-0.08-0.073-0.134l0.132-0.447
		c0.017-0.054,0.075-0.091,0.135-0.072l0.836,0.247l0.907-3.056c0.016-0.054,0.08-0.088,0.135-0.073l0.508,0.151
		c0.055,0.016,0.089,0.08,0.073,0.134L44.481,97.705z"/>
	<path clip-path="url(#SVGID_2_)" fill="#DAA250" d="M37.949,92.311l-0.343,0.221c-0.077,0.05-0.163,0.005-0.19-0.055
		c-0.018-0.027-0.276-0.536-0.605-0.707c-0.262-0.136-0.549-0.064-0.66,0.151c-0.133,0.258-0.006,0.547,0.332,0.938
		c0.377,0.437,0.698,0.984,0.392,1.581c-0.231,0.449-0.832,0.798-1.638,0.383c-0.517-0.267-0.777-0.733-0.839-0.861
		c-0.035-0.055-0.007-0.148,0.055-0.181l0.341-0.19c0.071-0.039,0.168-0.041,0.208,0.032c0.027,0.045,0.283,0.497,0.561,0.64
		c0.289,0.149,0.544,0.037,0.627-0.124c0.122-0.236,0.018-0.496-0.306-0.874c-0.391-0.449-0.808-1.034-0.473-1.686
		c0.267-0.521,0.965-0.769,1.679-0.4c0.638,0.328,0.86,0.82,0.912,0.969C38.024,92.215,38.037,92.254,37.949,92.311"/>
	<path clip-path="url(#SVGID_2_)" fill="#DAA250" d="M31.258,92.365c-0.032,0.048-0.099,0.064-0.15,0.029l-1.925-1.292
		c-0.052-0.034-0.062-0.102-0.03-0.148l0.26-0.388c0.033-0.047,0.099-0.063,0.151-0.028l1.4,0.938l0.521-0.772l-1.169-0.784
		c-0.047-0.032-0.062-0.104-0.03-0.15l0.264-0.391c0.034-0.052,0.103-0.062,0.149-0.03l1.169,0.785l0.556-0.826l-1.4-0.938
		c-0.053-0.035-0.062-0.104-0.03-0.149l0.26-0.387c0.031-0.048,0.098-0.065,0.15-0.029l1.925,1.291
		c0.052,0.035,0.062,0.103,0.03,0.15L31.258,92.365z"/>
	<path clip-path="url(#SVGID_2_)" fill="#DAA250" d="M26.447,88.873c-0.037,0.043-0.104,0.053-0.152,0.012l-0.399-0.34
		c-0.044-0.036-0.05-0.109-0.012-0.152l2.062-2.431l-1.104-0.942c-0.048-0.041-0.05-0.109-0.013-0.153l0.302-0.354
		c0.037-0.044,0.104-0.053,0.152-0.013l1.586,1.352c0.048,0.041,0.049,0.109,0.013,0.152L26.447,88.873z"/>
	<path clip-path="url(#SVGID_2_)" fill="#DAA250" d="M22.401,85.183c-0.041,0.038-0.109,0.04-0.152-0.005l-1.584-1.688
		c-0.043-0.046-0.036-0.115,0.005-0.154l0.34-0.317c0.041-0.039,0.11-0.041,0.153,0.005l1.151,1.228l0.681-0.638l-0.961-1.025
		c-0.039-0.042-0.036-0.114,0.005-0.152l0.344-0.323c0.046-0.042,0.115-0.036,0.154,0.005l0.961,1.024l0.725-0.681l-1.151-1.228
		c-0.043-0.046-0.036-0.114,0.005-0.153l0.341-0.319c0.041-0.039,0.109-0.041,0.152,0.005l1.584,1.689
		c0.043,0.045,0.036,0.114-0.005,0.153L22.401,85.183z"/>
	<path clip-path="url(#SVGID_2_)" fill="#DAA250" d="M17.328,79.385c-0.339-0.465-0.437-0.906-0.385-1.424
		c0.007-0.067,0.062-0.107,0.125-0.098l0.494,0.07c0.061,0.006,0.094,0.052,0.084,0.114c-0.029,0.316,0.058,0.647,0.246,0.904
		c0.43,0.588,1.241,0.666,1.819,0.245c0.574-0.417,0.739-1.212,0.309-1.8c-0.202-0.276-0.478-0.434-0.775-0.512
		c-0.06-0.015-0.092-0.067-0.084-0.115l0.086-0.498c0.005-0.062,0.071-0.095,0.127-0.086c0.531,0.092,0.963,0.383,1.262,0.792
		c0.671,0.918,0.481,2.188-0.438,2.856S18,80.303,17.328,79.385"/>
	<path clip-path="url(#SVGID_2_)" fill="#DAA250" d="M15.111,74.556l0.425,0.76c0.03,0.054,0.008,0.119-0.042,0.146l-0.406,0.229
		c-0.05,0.026-0.117,0.012-0.148-0.042l-1.213-2.167c-0.031-0.056-0.009-0.119,0.041-0.148l0.406-0.227
		c0.05-0.028,0.118-0.014,0.148,0.042l0.425,0.759l2.782-1.56c0.05-0.026,0.119-0.008,0.146,0.042l0.259,0.462
		c0.028,0.05,0.008,0.118-0.042,0.146L15.111,74.556z"/>
	<path clip-path="url(#SVGID_2_)" fill="#DAA250" d="M12.376,70.453c-0.053,0.022-0.117,0-0.142-0.058L11.34,68.26
		c-0.024-0.059,0.006-0.119,0.058-0.143l0.43-0.18c0.053-0.021,0.117,0,0.142,0.058l0.65,1.555l0.861-0.361l-0.543-1.297
		c-0.022-0.051,0.006-0.119,0.058-0.14l0.436-0.184c0.058-0.023,0.12,0.005,0.141,0.059l0.543,1.297l0.919-0.385l-0.65-1.555
		c-0.025-0.057,0.005-0.119,0.057-0.141l0.431-0.18c0.053-0.023,0.117,0,0.142,0.058l0.893,2.136
		c0.025,0.059-0.005,0.119-0.057,0.143L12.376,70.453z"/>
	<path clip-path="url(#SVGID_2_)" fill="#DAA250" d="M10.27,64.843c-0.055,0.015-0.116-0.017-0.131-0.07l-0.355-1.302
		c-0.289-1.062,0.335-2.163,1.387-2.45c1.063-0.29,2.159,0.342,2.447,1.403l0.355,1.302c0.015,0.054-0.023,0.112-0.077,0.127
		L10.27,64.843z M12.968,62.672c-0.194-0.715-0.873-1.091-1.591-0.895c-0.712,0.195-1.106,0.864-0.912,1.578l0.17,0.626l2.504-0.684
		L12.968,62.672z"/>
	<path clip-path="url(#SVGID_2_)" fill="#DAA250" d="M57.478,89.58c-21.811,0-39.555-17.744-39.555-39.554
		c0-21.811,17.744-39.555,39.555-39.555c21.812,0,39.555,17.744,39.555,39.555C97.032,71.836,79.289,89.58,57.478,89.58
		 M57.478,11.471c-21.259,0-38.555,17.296-38.555,38.555c0,21.258,17.296,38.554,38.555,38.554s38.555-17.296,38.555-38.554
		C96.032,28.767,78.736,11.471,57.478,11.471"/>
	<path clip-path="url(#SVGID_2_)" fill="#DAA250" d="M12.05,49.749c0,0.51-0.413,0.924-0.924,0.924c-0.51,0-0.923-0.415-0.923-0.924
		c0-0.51,0.413-0.924,0.923-0.924C11.637,48.824,12.05,49.238,12.05,49.749"/>
	<path clip-path="url(#SVGID_2_)" fill="#DAA250" d="M106.474,49.749c0,0.51-0.413,0.924-0.924,0.924
		c-0.51,0-0.923-0.415-0.923-0.924c0-0.51,0.413-0.924,0.923-0.924C106.061,48.824,106.474,49.238,106.474,49.749"/>
	<path clip-path="url(#SVGID_2_)" fill="#DAA250" d="M25.673,49.121c-0.066-0.004-0.119-0.063-0.114-0.127l0.134-1.547
		c0.11-1.258,1.221-2.201,2.47-2.09c1.263,0.109,2.196,1.23,2.087,2.49l-0.134,1.545c-0.006,0.067-0.068,0.111-0.134,0.108
		L25.673,49.121z M29.449,47.855c0.074-0.848-0.511-1.523-1.364-1.598c-0.846-0.076-1.537,0.489-1.612,1.336l-0.064,0.744
		l2.976,0.262L29.449,47.855z"/>
	<path clip-path="url(#SVGID_2_)" fill="#DAA250" d="M27.009,41.005c-0.062-0.023-0.101-0.092-0.077-0.158l0.873-2.516
		c0.023-0.07,0.097-0.099,0.158-0.078l0.508,0.176c0.061,0.023,0.1,0.092,0.076,0.158l-0.635,1.83l1.014,0.352l0.529-1.526
		c0.023-0.062,0.097-0.099,0.158-0.076l0.514,0.176c0.069,0.025,0.098,0.098,0.076,0.16l-0.529,1.525l1.081,0.377l0.636-1.83
		c0.023-0.068,0.097-0.097,0.158-0.076l0.508,0.174c0.06,0.023,0.099,0.092,0.076,0.16l-0.874,2.516
		c-0.023,0.068-0.097,0.097-0.158,0.076L27.009,41.005z"/>
	<path clip-path="url(#SVGID_2_)" fill="#DAA250" d="M32.953,36.652l-0.219-0.414c-0.05-0.094,0.01-0.188,0.079-0.213
		c0.035-0.018,0.642-0.262,0.869-0.621c0.181-0.289,0.127-0.623-0.111-0.772c-0.283-0.179-0.627-0.062-1.106,0.286
		c-0.538,0.39-1.198,0.703-1.852,0.293c-0.493-0.309-0.835-1.032-0.283-1.914c0.354-0.567,0.914-0.819,1.066-0.877
		c0.068-0.034,0.173,0.007,0.204,0.082l0.185,0.408c0.039,0.086,0.03,0.197-0.055,0.236c-0.056,0.027-0.597,0.276-0.788,0.58
		c-0.198,0.317-0.094,0.619,0.082,0.729c0.261,0.164,0.568,0.072,1.032-0.264c0.552-0.402,1.263-0.822,1.978-0.373
		c0.571,0.357,0.789,1.18,0.3,1.963c-0.439,0.699-1.022,0.904-1.197,0.949C33.056,36.748,33.011,36.757,32.953,36.652"/>
	<path clip-path="url(#SVGID_2_)" fill="#DAA250" d="M33.882,28.931c-0.046-0.045-0.05-0.127-0.005-0.176l0.416-0.443
		c0.045-0.047,0.129-0.049,0.176-0.004l3.157,2.963c0.048,0.045,0.05,0.129,0.006,0.176l-0.417,0.445
		c-0.044,0.047-0.129,0.049-0.176,0.004L33.882,28.931z"/>
	<path clip-path="url(#SVGID_2_)" fill="#DAA250" d="M39.352,23.966c0.485-0.334,1.079-0.463,1.66-0.402
		c0.072,0.015,0.122,0.074,0.11,0.148l-0.094,0.58c-0.014,0.072-0.063,0.106-0.141,0.096c-0.372-0.045-0.732,0.043-1.028,0.246
		c-0.675,0.463-0.813,1.408-0.35,2.08c0.459,0.67,1.381,0.869,2.062,0.402c0.302-0.207,0.47-0.457,0.549-0.574l-0.315-0.459
		l-0.432,0.295c-0.058,0.041-0.132,0.027-0.168-0.025l-0.292-0.426c-0.041-0.059-0.029-0.133,0.032-0.174l1.035-0.711
		c0.053-0.037,0.13-0.017,0.167,0.037l0.947,1.379c0.03,0.045,0.028,0.086,0.018,0.117c0,0-0.317,0.731-1.098,1.27
		c-1.072,0.736-2.521,0.476-3.262-0.604C38.012,26.163,38.28,24.702,39.352,23.966"/>
	<path clip-path="url(#SVGID_2_)" fill="#DAA250" d="M44.793,21.099c-0.021-0.062,0.017-0.131,0.078-0.152l0.154-0.055l3.526,1.824
		h0.006l-0.892-2.549c-0.021-0.06,0.009-0.132,0.077-0.158l0.569-0.199c0.061-0.022,0.136,0.016,0.158,0.076l1.453,4.151
		c0.021,0.062-0.017,0.13-0.078,0.152l-0.15,0.053l-3.574-1.926l-0.006,0.002l0.929,2.652c0.021,0.061-0.009,0.135-0.077,0.156
		l-0.562,0.2c-0.062,0.019-0.137-0.016-0.159-0.077L44.793,21.099z"/>
	<path clip-path="url(#SVGID_2_)" fill="#DAA250" d="M53.009,18.986c-0.006-0.064,0.041-0.127,0.113-0.133l2.654-0.224
		c0.072-0.006,0.129,0.048,0.134,0.115l0.045,0.533c0.005,0.064-0.042,0.129-0.114,0.135l-1.929,0.162l0.09,1.07l1.611-0.137
		c0.064-0.003,0.127,0.049,0.133,0.114l0.045,0.541c0.007,0.072-0.048,0.129-0.113,0.135l-1.61,0.134l0.096,1.141l1.93-0.16
		c0.071-0.008,0.13,0.047,0.135,0.111l0.045,0.535c0.007,0.067-0.042,0.127-0.113,0.135l-2.654,0.223
		c-0.072,0.006-0.129-0.047-0.135-0.114L53.009,18.986z"/>
	<path clip-path="url(#SVGID_2_)" fill="#DAA250" d="M60.262,18.91c0.011-0.065,0.072-0.115,0.143-0.104l1.848,0.293
		c0.775,0.123,1.309,0.844,1.188,1.614c-0.095,0.593-0.565,1.015-1.163,1.152l0.624,1.781c0.031,0.09-0.03,0.188-0.141,0.17
		l-0.677-0.109c-0.06-0.008-0.086-0.045-0.095-0.075l-0.586-1.847l-0.718-0.114l-0.263,1.647c-0.01,0.064-0.077,0.113-0.143,0.103
		l-0.594-0.093c-0.07-0.014-0.112-0.078-0.103-0.143L60.262,18.91z M61.854,21.15c0.342,0.053,0.687-0.197,0.744-0.559
		c0.055-0.341-0.198-0.673-0.54-0.728l-1.052-0.166l-0.205,1.285L61.854,21.15z"/>
	<path clip-path="url(#SVGID_2_)" fill="#DAA250" d="M66.08,24.119l0.374-0.283c0.083-0.067,0.186-0.024,0.223,0.041
		c0.022,0.031,0.365,0.59,0.759,0.752c0.314,0.131,0.637,0.023,0.744-0.237c0.13-0.308-0.045-0.627-0.468-1.043
		c-0.474-0.464-0.892-1.06-0.596-1.775c0.224-0.537,0.88-0.994,1.843-0.596c0.617,0.256,0.96,0.764,1.043,0.905
		c0.045,0.062,0.021,0.172-0.047,0.215l-0.372,0.248c-0.078,0.052-0.189,0.064-0.242-0.014c-0.036-0.051-0.371-0.543-0.704-0.682
		c-0.345-0.142-0.628,0.01-0.709,0.203c-0.117,0.286,0.026,0.571,0.435,0.973c0.489,0.479,1.022,1.109,0.698,1.889
		c-0.258,0.621-1.035,0.972-1.89,0.619c-0.763-0.315-1.062-0.858-1.136-1.022C66.004,24.236,65.986,24.192,66.08,24.119"/>
	<path clip-path="url(#SVGID_2_)" fill="#DAA250" d="M45.756,73.586c1.076,0.788,1.303,2.283,0.514,3.36
		c-0.787,1.075-2.275,1.3-3.35,0.513c-1.076-0.788-1.304-2.27-0.517-3.346C43.191,73.038,44.68,72.798,45.756,73.586 M43.433,76.76
		c0.678,0.496,1.643,0.352,2.139-0.326s0.351-1.653-0.327-2.148c-0.677-0.496-1.646-0.339-2.142,0.341
		C42.606,75.304,42.754,76.263,43.433,76.76"/>
	<path clip-path="url(#SVGID_2_)" fill="#DAA250" d="M50.41,76.461c0.021-0.063,0.091-0.104,0.16-0.078l2.56,0.89
		c0.069,0.023,0.099,0.098,0.078,0.161l-0.179,0.516c-0.022,0.062-0.092,0.103-0.161,0.078l-1.861-0.647l-0.411,1.183l1.553,0.54
		c0.063,0.021,0.1,0.099,0.078,0.16l-0.179,0.516c-0.022,0.063-0.098,0.102-0.161,0.078l-1.554-0.541l-0.553,1.594
		c-0.021,0.062-0.098,0.1-0.161,0.077l-0.578-0.201c-0.069-0.024-0.1-0.098-0.078-0.16L50.41,76.461z"/>
	<path clip-path="url(#SVGID_2_)" fill="#DAA250" d="M62.098,77.759c0.596-0.072,1.192,0.092,1.689,0.421
		c0.06,0.048,0.077,0.126,0.03,0.186l-0.358,0.479c-0.048,0.059-0.105,0.066-0.173,0.021c-0.314-0.218-0.682-0.308-1.046-0.264
		c-0.828,0.099-1.397,0.884-1.296,1.711c0.1,0.82,0.84,1.437,1.674,1.337c0.37-0.045,0.643-0.191,0.768-0.26l-0.068-0.563
		l-0.53,0.064c-0.072,0.009-0.132-0.037-0.14-0.104l-0.063-0.522c-0.009-0.072,0.036-0.132,0.11-0.14l1.271-0.152
		c0.065-0.008,0.126,0.044,0.134,0.111l0.206,1.693c0.007,0.052-0.017,0.088-0.04,0.111c0,0-0.63,0.512-1.589,0.627
		c-1.318,0.157-2.505-0.761-2.666-2.084C59.85,79.107,60.78,77.916,62.098,77.759"/>
	<path clip-path="url(#SVGID_2_)" fill="#DAA250" d="M66.909,76.821c-0.027-0.062-0.003-0.139,0.063-0.167l1.739-0.779
		c0.729-0.328,1.586-0.012,1.91,0.713c0.251,0.56,0.085,1.181-0.349,1.631l1.525,1.171c0.077,0.058,0.079,0.176-0.024,0.223
		l-0.639,0.285c-0.056,0.024-0.099,0.008-0.121-0.011l-1.531-1.248l-0.675,0.303l0.695,1.548c0.027,0.062-0.003,0.142-0.063,0.168
		l-0.56,0.25c-0.066,0.031-0.14-0.002-0.167-0.062L66.909,76.821z M69.514,77.843c0.322-0.146,0.478-0.549,0.324-0.889
		c-0.145-0.323-0.544-0.466-0.866-0.32l-0.99,0.444l0.542,1.21L69.514,77.843z"/>
	<path clip-path="url(#SVGID_2_)" fill="#DAA250" d="M74.183,72.163c0.992-0.892,2.502-0.808,3.391,0.182
		c0.891,0.989,0.803,2.488-0.189,3.38c-0.991,0.892-2.487,0.813-3.377-0.176C73.118,74.558,73.19,73.054,74.183,72.163
		 M76.807,75.081c0.624-0.562,0.683-1.533,0.122-2.157c-0.561-0.623-1.543-0.68-2.168-0.118s-0.67,1.54-0.108,2.163
		C75.212,75.592,76.182,75.643,76.807,75.081"/>
	<path clip-path="url(#SVGID_2_)" fill="#DAA250" d="M77.797,68.682c-0.095-0.021-0.129-0.101-0.084-0.182l0.289-0.54
		c0.024-0.049,0.092-0.072,0.14-0.062l2.672,0.648l0.013-0.024l-1.92-2.233c-0.027-0.03-0.042-0.076-0.01-0.134l0.057-0.107
		c0.03-0.059,0.075-0.071,0.117-0.064l2.926,0.359l0.013-0.024l-2.023-1.857c-0.033-0.032-0.049-0.102-0.023-0.148l0.289-0.541
		c0.045-0.082,0.129-0.098,0.197-0.029l3.353,3.229c0.04,0.036,0.051,0.104,0.025,0.148l-0.051,0.095
		c-0.028,0.053-0.077,0.072-0.119,0.064l-3.225-0.376l-0.016,0.029l2.103,2.469c0.026,0.036,0.043,0.075,0.011,0.135l-0.05,0.094
		c-0.025,0.046-0.086,0.074-0.14,0.062L77.797,68.682z"/>
	<path clip-path="url(#SVGID_2_)" fill="#DAA250" d="M81.973,60.307l-0.194,1c-0.014,0.072-0.082,0.113-0.148,0.1l-0.536-0.104
		c-0.064-0.012-0.113-0.075-0.101-0.148l0.555-2.856c0.014-0.073,0.083-0.113,0.148-0.1l0.536,0.104
		c0.065,0.012,0.114,0.076,0.1,0.147l-0.193,1.001l3.668,0.71c0.064,0.014,0.112,0.084,0.101,0.149l-0.12,0.608
		c-0.011,0.064-0.083,0.112-0.146,0.101L81.973,60.307z"/>
	<path clip-path="url(#SVGID_2_)" fill="#DAA250" d="M81.905,55.257c-0.065,0.005-0.131-0.05-0.137-0.115l-0.056-0.617
		c-0.007-0.073,0.047-0.131,0.114-0.138l1.756-0.162l-0.197-2.163l-1.755,0.162c-0.066,0.007-0.13-0.04-0.138-0.114l-0.055-0.61
		c-0.007-0.065,0.048-0.131,0.113-0.139l4.388-0.404c0.065-0.006,0.131,0.047,0.137,0.113l0.056,0.611
		c0.005,0.072-0.048,0.132-0.116,0.138l-1.827,0.168l0.195,2.163l1.829-0.169c0.066-0.007,0.13,0.041,0.136,0.114l0.057,0.617
		c0.007,0.065-0.048,0.131-0.113,0.137L81.905,55.257z"/>
</g>
<g>
	<defs>
		
			<rect id="SVGID_3_" x="47.296" y="-9.599" transform="matrix(-0.4795 -0.8775 0.8775 -0.4795 40.3636 123.9908)" width="19.309" height="119.25"/>
	</defs>
	<clipPath id="SVGID_4_">
		<use xlink:href="#SVGID_3_"  overflow="visible"/>
	</clipPath>
	<path clip-path="url(#SVGID_4_)" fill="#DAA250" d="M57.803,79.202c-16.249,0-29.469-13.22-29.469-29.469
		c0-16.249,13.22-29.468,29.469-29.468s29.468,13.219,29.468,29.468C87.271,65.982,74.052,79.202,57.803,79.202 M57.803,21.265
		c-15.697,0-28.469,12.771-28.469,28.468s12.772,28.469,28.469,28.469c15.697,0,28.468-12.772,28.468-28.469
		S73.5,21.265,57.803,21.265"/>
</g>
</svg>
