<?xml version="1.0" encoding="utf-8"?>
<!-- Generator: Adobe Illustrator 16.0.4, SVG Export Plug-In . SVG Version: 6.00 Build 0)  -->
<!DOCTYPE svg PUBLIC "-//W3C//DTD SVG 1.1//EN" "http://www.w3.org/Graphics/SVG/1.1/DTD/svg11.dtd">
<svg version="1.1" id="Layer_1" xmlns="http://www.w3.org/2000/svg" xmlns:xlink="http://www.w3.org/1999/xlink" x="0px" y="0px"
	 width="17.037px" height="13.846px" viewBox="0 0 17.037 13.846" enable-background="new 0 0 17.037 13.846" xml:space="preserve">
<path fill="#FFFFFF" d="M17.037,1.639c-0.626,0.278-1.301,0.466-2.007,0.55c0.722-0.432,1.276-1.117,1.536-1.933
	c-0.676,0.401-1.424,0.691-2.221,0.847C13.71,0.424,12.801,0,11.795,0C9.866,0,8.301,1.565,8.301,3.495
	c0,0.274,0.03,0.54,0.09,0.796c-2.905-0.146-5.48-1.536-7.205-3.653C0.885,1.157,0.713,1.757,0.713,2.397
	c0,1.212,0.617,2.282,1.555,2.909C1.695,5.289,1.156,5.13,0.684,4.87v0.043c0,1.694,1.205,3.107,2.805,3.427
	C3.195,8.422,2.887,8.463,2.567,8.463c-0.225,0-0.445-0.021-0.657-0.062c0.444,1.389,1.735,2.4,3.265,2.426
	c-1.197,0.939-2.704,1.498-4.341,1.498c-0.282,0-0.561-0.016-0.834-0.049c1.547,0.99,3.384,1.57,5.358,1.57
	c6.43,0,9.945-5.326,9.945-9.945c0-0.152-0.002-0.304-0.01-0.453C15.977,2.955,16.57,2.34,17.037,1.639"/>
</svg>
