<?xml version="1.0" encoding="utf-8"?>
<!-- Generator: Adobe Illustrator 16.0.4, SVG Export Plug-In . SVG Version: 6.00 Build 0)  -->
<!DOCTYPE svg PUBLIC "-//W3C//DTD SVG 1.1//EN" "http://www.w3.org/Graphics/SVG/1.1/DTD/svg11.dtd">
<svg version="1.1" id="Layer_1" xmlns="http://www.w3.org/2000/svg" xmlns:xlink="http://www.w3.org/1999/xlink" x="0px" y="0px"
	 width="37.041px" height="17.008px" viewBox="0 0 37.041 17.008" enable-background="new 0 0 37.041 17.008" xml:space="preserve">
<g>
	<defs>
		<rect id="SVGID_1_" y="0" width="37.041" height="17.008"/>
	</defs>
	<clipPath id="SVGID_2_">
		<use xlink:href="#SVGID_1_"  overflow="visible"/>
	</clipPath>
	<path clip-path="url(#SVGID_2_)" fill="#FFFFFF" d="M17.037,4.049c-0.626,0.278-1.301,0.466-2.007,0.55
		c0.722-0.432,1.276-1.117,1.536-1.933c-0.675,0.401-1.423,0.691-2.22,0.847C13.71,2.834,12.801,2.41,11.795,2.41
		c-1.929,0-3.494,1.565-3.494,3.495c0,0.274,0.03,0.54,0.09,0.796c-2.905-0.146-5.48-1.536-7.205-3.653
		C0.885,3.567,0.713,4.167,0.713,4.807c0,1.212,0.617,2.282,1.555,2.909C1.695,7.699,1.156,7.54,0.684,7.28v0.043
		c0,1.694,1.205,3.107,2.805,3.427c-0.294,0.082-0.602,0.123-0.922,0.123c-0.225,0-0.445-0.021-0.657-0.062
		c0.444,1.388,1.735,2.399,3.265,2.426c-1.197,0.938-2.704,1.497-4.341,1.497c-0.282,0-0.561-0.016-0.834-0.048
		c1.547,0.99,3.384,1.569,5.358,1.569c6.43,0,9.945-5.325,9.945-9.944c0-0.152-0.003-0.304-0.01-0.453
		C15.976,5.365,16.57,4.75,17.037,4.049"/>
	<path clip-path="url(#SVGID_2_)" fill="#FFFFFF" d="M28.835,5.625h1.758V3.916c0-0.753,0.02-1.915,0.567-2.635
		C31.736,0.519,32.528,0,33.889,0c2.219,0,3.152,0.316,3.152,0.316l-0.439,2.605c0,0-0.732-0.212-1.417-0.212
		c-0.684,0-1.296,0.245-1.296,0.929v1.986h2.805l-0.195,2.545h-2.609v8.839h-3.296V8.169h-1.758V5.625z"/>
</g>
</svg>
