<?xml version="1.0" encoding="utf-8"?>
<!-- Generator: Adobe Illustrator 18.1.0, SVG Export Plug-In . SVG Version: 6.00 Build 0)  -->
<svg version="1.1" id="Layer_1" xmlns="http://www.w3.org/2000/svg" xmlns:xlink="http://www.w3.org/1999/xlink" x="0px" y="0px"
	 viewBox="0 0 949.9 916.4" enable-background="new 0 0 949.9 916.4" xml:space="preserve">
<g>
	<defs>
		<polygon id="SVGID_1_" points="820.7,276.3 707.7,181.1 575.3,181.1 498.2,251 386,169.8 273.3,184.1 193,248.1 164.8,343.6 
			193,469.7 273.8,571 313.4,610.3 381.3,665.5 437.4,704.5 498.2,743.2 584.5,687.4 663.8,628.9 782,501 824.6,407.6 		"/>
	</defs>
	<clipPath id="SVGID_2_">
		<use xlink:href="#SVGID_1_"  overflow="visible"/>
	</clipPath>
	<polygon clip-path="url(#SVGID_2_)" fill="#991717" points="443.9,306.8 498.2,251 609.6,259.8 	"/>
	<polygon clip-path="url(#SVGID_2_)" fill="#FF0505" points="443.9,306.8 578.6,355.9 609.6,259.8 	"/>
	<polygon clip-path="url(#SVGID_2_)" fill="#EC5B87" points="728.1,282.9 707.7,181.1 609.6,259.8 	"/>
	<polygon clip-path="url(#SVGID_2_)" fill="#E00D0D" points="575.3,181.1 707.7,181.1 609.6,259.8 	"/>
	<polygon clip-path="url(#SVGID_2_)" fill="#EA7853" points="575.3,181.1 498.2,251 609.6,259.8 	"/>
	<polygon clip-path="url(#SVGID_2_)" fill="#C0BEC2" points="289.4,447.7 339.4,506.5 389.3,447.7 	"/>
	<polygon clip-path="url(#SVGID_2_)" fill="#B0ACB0" points="289.4,447.7 372.7,364.2 389.3,447.7 	"/>
	<polygon clip-path="url(#SVGID_2_)" fill="#5D5E61" points="461.5,385.7 372.7,364.2 389.3,447.7 	"/>
	<polygon clip-path="url(#SVGID_2_)" fill="#C0BEC2" points="461.5,385.7 532.2,504.9 389.3,447.7 	"/>
	<polygon clip-path="url(#SVGID_2_)" fill="#5D5E61" points="411.1,527 339.4,506.5 389.3,447.7 	"/>
	<polygon clip-path="url(#SVGID_2_)" fill="#C91762" points="443.9,306.8 578.6,355.9 461.5,385.7 	"/>
	<polygon clip-path="url(#SVGID_2_)" fill="#8C959D" points="443.9,306.8 372.7,364.2 461.5,385.7 	"/>
	<polygon clip-path="url(#SVGID_2_)" fill="#FF0505" points="548.5,421.3 578.6,355.9 461.5,385.7 	"/>
	<polygon clip-path="url(#SVGID_2_)" fill="#C0BEC2" points="443.9,306.8 372.7,364.2 328.1,308.7 	"/>
	<polygon clip-path="url(#SVGID_2_)" fill="#747678" points="289.4,447.7 372.7,364.2 328.1,308.7 	"/>
	<polygon clip-path="url(#SVGID_2_)" fill="#EC5B87" points="770.2,344 669.8,348.9 683,457.1 	"/>
	<polygon clip-path="url(#SVGID_2_)" fill="#991717" points="770.2,344 774.4,429.8 683,457.1 	"/>
	<polygon clip-path="url(#SVGID_2_)" fill="#E00D0D" points="692.2,513.9 774.4,429.8 683,457.1 	"/>
	<polygon clip-path="url(#SVGID_2_)" fill="#991717" points="782,501 663.8,628.9 692.2,513.9 	"/>
	<polygon clip-path="url(#SVGID_2_)" fill="#EA7853" points="782,501 774.4,429.8 692.2,513.9 	"/>
	<polygon clip-path="url(#SVGID_2_)" fill="#EC5B87" points="610.7,567.6 663.8,628.9 692.2,513.9 	"/>
	<polygon clip-path="url(#SVGID_2_)" fill="#991717" points="782,501 774.4,429.8 824.6,407.6 	"/>
	<polygon clip-path="url(#SVGID_2_)" fill="#EC5B87" points="632.8,419.8 532.2,504.9 683,457.1 	"/>
	<polygon clip-path="url(#SVGID_2_)" fill="#C91762" points="632.8,419.8 532.2,504.9 548.5,421.3 	"/>
	<polygon clip-path="url(#SVGID_2_)" fill="#EC5B87" points="461.5,385.7 532.2,504.9 548.5,421.3 	"/>
	<polygon clip-path="url(#SVGID_2_)" fill="#EA7853" points="632.8,419.8 669.8,348.9 683,457.1 	"/>
	<polygon clip-path="url(#SVGID_2_)" fill="#EC5B87" points="632.8,419.8 669.8,348.9 578.6,355.9 	"/>
	<polygon clip-path="url(#SVGID_2_)" fill="#991717" points="632.8,419.8 548.5,421.3 578.6,355.9 	"/>
	<polygon clip-path="url(#SVGID_2_)" fill="#C91762" points="728.1,282.9 578.6,355.9 609.6,259.8 	"/>
	<polygon clip-path="url(#SVGID_2_)" fill="#EB595F" points="728.1,282.9 578.6,355.9 669.8,348.9 	"/>
	<polygon clip-path="url(#SVGID_2_)" fill="#EC5B87" points="728.1,282.9 770.2,344 669.8,348.9 	"/>
	<polygon clip-path="url(#SVGID_2_)" fill="#D3D1D3" points="272.9,260.6 386,169.8 193,248.1 	"/>
	<polygon clip-path="url(#SVGID_2_)" fill="#D3D1D3" points="443.9,306.8 386,169.8 328.1,308.7 	"/>
	<polygon clip-path="url(#SVGID_2_)" fill="#B0ACB0" points="273.3,184.1 386,169.8 193,248.1 	"/>
	<polygon clip-path="url(#SVGID_2_)" fill="#B0ACB0" points="443.9,306.8 498.2,251 386,169.8 	"/>
	<polygon clip-path="url(#SVGID_2_)" fill="#8C959D" points="328.1,308.7 237.7,326.7 289.4,447.7 	"/>
	<polygon clip-path="url(#SVGID_2_)" fill="#5D5E61" points="386,169.8 328.1,308.7 272.9,260.6 	"/>
	<polygon clip-path="url(#SVGID_2_)" fill="#5D5E61" points="220.7,407.6 237.7,326.7 289.4,447.7 	"/>
	<polygon clip-path="url(#SVGID_2_)" fill="#D3D1D3" points="193,469.7 220.7,407.6 289.4,447.7 	"/>
	<polygon clip-path="url(#SVGID_2_)" fill="#8C959D" points="193,469.7 289.4,447.7 273.8,571 	"/>
	<polygon clip-path="url(#SVGID_2_)" fill="#747678" points="220.7,407.6 237.7,326.7 164.8,343.6 	"/>
	<polygon clip-path="url(#SVGID_2_)" fill="#5D5E61" points="272.9,260.6 164.8,343.6 193,248.1 	"/>
	<polygon clip-path="url(#SVGID_2_)" fill="#8C959D" points="272.9,260.6 164.8,343.6 237.7,326.7 	"/>
	<polygon clip-path="url(#SVGID_2_)" fill="#C0BEC2" points="272.9,260.6 328.1,308.7 237.7,326.7 	"/>
	<polygon clip-path="url(#SVGID_2_)" fill="#C91762" points="692.2,513.9 532.2,504.9 683,457.1 	"/>
	<polygon clip-path="url(#SVGID_2_)" fill="#991717" points="692.2,513.9 532.2,504.9 610.7,567.6 	"/>
	<polygon clip-path="url(#SVGID_2_)" fill="#FF0505" points="533.5,627.4 532.2,504.9 610.7,567.6 	"/>
	<polygon clip-path="url(#SVGID_2_)" fill="#EA7853" points="533.5,627.4 663.8,628.9 610.7,567.6 	"/>
	<polygon clip-path="url(#SVGID_2_)" fill="#8C959D" points="411.1,527 532.2,504.9 389.3,447.7 	"/>
	<polygon clip-path="url(#SVGID_2_)" fill="#E9E9EA" points="411.1,527 532.2,504.9 313.4,610.3 	"/>
	<polygon clip-path="url(#SVGID_2_)" fill="#B0ACB0" points="313.4,610.3 461.7,591.8 381.3,665.5 	"/>
	<polygon clip-path="url(#SVGID_2_)" fill="#8C959D" points="313.4,610.3 532.2,504.9 461.7,591.8 	"/>
	<polygon clip-path="url(#SVGID_2_)" fill="#A02727" points="461.7,591.8 533.5,627.4 471.7,660.7 	"/>
	<polygon clip-path="url(#SVGID_2_)" fill="#991717" points="532.2,504.9 533.5,627.4 461.7,591.8 	"/>
	<polygon clip-path="url(#SVGID_2_)" fill="#C0BEC2" points="461.7,591.8 471.7,660.7 381.3,665.5 	"/>
	<polygon clip-path="url(#SVGID_2_)" fill="#747678" points="411.1,527 339.4,506.5 313.4,610.3 	"/>
	<polygon clip-path="url(#SVGID_2_)" fill="#5D5E61" points="289.4,447.7 339.4,506.5 313.4,610.3 	"/>
	<polygon clip-path="url(#SVGID_2_)" fill="#D3D1D3" points="289.4,447.7 273.8,571 313.4,610.3 	"/>
	<polygon clip-path="url(#SVGID_2_)" fill="#E9E9EA" points="437.4,704.5 381.3,665.5 471.7,660.7 	"/>
	<polygon clip-path="url(#SVGID_2_)" fill="#8C959D" points="437.4,704.5 498.2,743.2 471.7,660.7 	"/>
	<polygon clip-path="url(#SVGID_2_)" fill="#E00D0D" points="533.5,627.4 498.2,743.2 471.7,660.7 	"/>
	<polygon clip-path="url(#SVGID_2_)" fill="#C91762" points="533.5,627.4 498.2,743.2 584.5,687.4 	"/>
	<polygon clip-path="url(#SVGID_2_)" fill="#991717" points="533.5,627.4 663.8,628.9 584.5,687.4 	"/>
	<polygon clip-path="url(#SVGID_2_)" fill="#A02727" points="770.2,344 774.4,429.8 824.6,407.6 	"/>
	<polygon clip-path="url(#SVGID_2_)" fill="#FF0505" points="770.2,344 820.7,276.3 824.6,407.6 	"/>
	<polygon clip-path="url(#SVGID_2_)" fill="#EA7853" points="770.2,344 820.7,276.3 728.1,282.9 	"/>
	<polygon clip-path="url(#SVGID_2_)" fill="#E00D0D" points="707.7,181.1 820.7,276.3 728.1,282.9 	"/>
	<polygon clip-path="url(#SVGID_2_)" fill="#5D5E61" points="193,469.7 164.8,343.6 220.7,407.6 	"/>
</g>
<radialGradient id="SVGID_3_" cx="713.0864" cy="528.387" r="184.532" gradientTransform="matrix(0.6795 0 0 0.1686 15.9828 656.0335)" gradientUnits="userSpaceOnUse">
	<stop  offset="0" style="stop-color:#706449"/>
	<stop  offset="1.505142e-02" style="stop-color:#786C53"/>
	<stop  offset="8.377588e-02" style="stop-color:#978F7B"/>
	<stop  offset="0.1591" style="stop-color:#B3AD9F"/>
	<stop  offset="0.2404" style="stop-color:#CBC7BD"/>
	<stop  offset="0.3295" style="stop-color:#DEDBD5"/>
	<stop  offset="0.4296" style="stop-color:#EDEBE8"/>
	<stop  offset="0.547" style="stop-color:#F7F7F5"/>
	<stop  offset="0.6978" style="stop-color:#FDFDFD"/>
	<stop  offset="1" style="stop-color:#FFFFFF"/>
</radialGradient>
<ellipse fill="url(#SVGID_3_)" cx="500" cy="745" rx="133" ry="33"/>
</svg>
